<svg xmlns="http://www.w3.org/2000/svg" xmlns:xlink="http://www.w3.org/1999/xlink" width="500" zoomAndPan="magnify" viewBox="0 0 375 374.999991" height="500" preserveAspectRatio="xMidYMid meet" version="1.0"><defs><clipPath id="a17c24cc33"><path d="M 183 139 L 234.375 139 L 234.375 173 L 183 173 Z M 183 139 " clip-rule="nonzero"/></clipPath><clipPath id="727137abb3"><path d="M 175 156 L 209 156 L 209 206.988281 L 175 206.988281 Z M 175 156 " clip-rule="nonzero"/></clipPath><clipPath id="4974552cb1"><path d="M 140.625 148 L 192 148 L 192 181 L 140.625 181 Z M 140.625 148 " clip-rule="nonzero"/></clipPath><clipPath id="592a7c78c9"><path d="M 166 113.238281 L 200 113.238281 L 200 165 L 166 165 Z M 166 113.238281 " clip-rule="nonzero"/></clipPath></defs><path fill="#38b6ff" d="M 229.109375 135.429688 L 215.589844 123.273438 L 216.386719 128.140625 C 174.566406 122.144531 175.339844 153.640625 175.339844 153.640625 C 181.285156 131.621094 203.59375 132.621094 213.90625 134.355469 L 208.988281 137.257812 L 229.109375 135.429688 " fill-opacity="1" fill-rule="nonzero"/><g clip-path="url(#a17c24cc33)"><path fill="#38b6ff" d="M 234.382812 172.082031 L 233.414062 153.925781 L 230.539062 157.929688 C 205.207031 124.117188 183.480469 146.933594 183.480469 146.933594 C 203.253906 135.570312 218.324219 152.054688 224.390625 160.570312 L 218.859375 159.148438 L 234.382812 172.082031 " fill-opacity="1" fill-rule="nonzero"/></g><path fill="#38b6ff" d="M 212.191406 201.722656 L 224.347656 188.203125 L 219.480469 189 C 225.480469 147.179688 193.980469 147.953125 193.980469 147.953125 C 216 153.898438 215 176.207031 213.265625 186.519531 L 210.363281 181.601562 L 212.191406 201.722656 " fill-opacity="1" fill-rule="nonzero"/><g clip-path="url(#727137abb3)"><path fill="#38b6ff" d="M 175.539062 206.992188 L 193.695312 206.027344 L 189.691406 203.152344 C 223.503906 177.820312 200.6875 156.09375 200.6875 156.09375 C 212.054688 175.867188 195.570312 190.933594 187.050781 197.003906 L 188.476562 191.472656 L 175.539062 206.992188 " fill-opacity="1" fill-rule="nonzero"/></g><path fill="#38b6ff" d="M 145.898438 184.804688 L 159.417969 196.960938 L 158.621094 192.09375 C 200.441406 198.09375 199.671875 166.59375 199.671875 166.59375 C 193.726562 188.613281 171.414062 187.613281 161.101562 185.878906 L 166.019531 182.976562 L 145.898438 184.804688 " fill-opacity="1" fill-rule="nonzero"/><g clip-path="url(#4974552cb1)"><path fill="#38b6ff" d="M 140.628906 148.152344 L 141.59375 166.308594 L 144.46875 162.304688 C 169.800781 196.117188 191.527344 173.300781 191.527344 173.300781 C 171.753906 184.667969 156.6875 168.183594 150.621094 159.664062 L 156.148438 161.085938 L 140.628906 148.152344 " fill-opacity="1" fill-rule="nonzero"/></g><path fill="#38b6ff" d="M 162.816406 118.511719 L 150.664062 132.03125 L 155.527344 131.234375 C 149.53125 173.054688 181.027344 172.285156 181.027344 172.285156 C 159.007812 166.339844 160.011719 144.027344 161.742188 133.714844 L 164.648438 138.632812 L 162.816406 118.511719 " fill-opacity="1" fill-rule="nonzero"/><g clip-path="url(#592a7c78c9)"><path fill="#38b6ff" d="M 199.46875 113.242188 L 181.3125 114.207031 L 185.316406 117.082031 C 151.503906 142.414062 174.320312 164.140625 174.320312 164.140625 C 162.957031 144.367188 179.441406 129.300781 187.957031 123.234375 L 186.535156 128.761719 L 199.46875 113.242188 " fill-opacity="1" fill-rule="nonzero"/></g></svg>